<svg width="15" height="16" viewBox="0 0 15 16" fill="none" xmlns="http://www.w3.org/2000/svg">
<path d="M14.6515 6.28097C14.5553 5.98352 14.2915 5.77225 13.9793 5.74412L9.73947 5.35914L8.06292 1.43499C7.9393 1.1474 7.65776 0.961243 7.34495 0.961243C7.03215 0.961243 6.75061 1.1474 6.62699 1.43566L4.95043 5.35914L0.709893 5.74412C0.398319 5.77292 0.135163 5.98352 0.0384405 6.28097C-0.0582818 6.57842 0.0310434 6.90468 0.266741 7.11034L3.47158 9.921L2.52655 14.0839C2.45739 14.39 2.5762 14.7063 2.83016 14.8899C2.96667 14.9886 3.12638 15.0388 3.28744 15.0388C3.4263 15.0388 3.56404 15.0013 3.68766 14.9274L7.34495 12.7415L11.0009 14.9274C11.2684 15.0883 11.6057 15.0736 11.8591 14.8899C12.1131 14.7058 12.2318 14.3893 12.1627 14.0839L11.2177 9.921L14.4225 7.1109C14.6582 6.90468 14.7482 6.57898 14.6515 6.28097Z" fill="#FFC107"/>
</svg>
